<?xml version="1.0" encoding="utf-8"?>
<svg version="1.1" xmlns:xlink="http://www.w3.org/1999/xlink" width="300px" height="50px" xmlns="http://www.w3.org/2000/svg">
  <g transform="matrix(1 0 0 1 -25 -230 )">
    <path d="M 26 233  A 2 2 0 0 1 28 231 L 322 231  A 2 2 0 0 1 324 233 L 324 277  A 2 2 0 0 1 322 279 L 28 279  A 2 2 0 0 1 26 277 L 26 233  Z " fill-rule="nonzero" fill="#ffffff" stroke="none" fill-opacity="0.498039215686275" />
    <path d="M 25.5 233  A 2.5 2.5 0 0 1 28 230.5 L 322 230.5  A 2.5 2.5 0 0 1 324.5 233 L 324.5 277  A 2.5 2.5 0 0 1 322 279.5 L 28 279.5  A 2.5 2.5 0 0 1 25.5 277 L 25.5 233  Z " stroke-width="1" stroke="#cccccc" fill="none" stroke-opacity="0.698039215686274" />
  </g>
</svg>